<svg xmlns="http://www.w3.org/2000/svg" viewBox="0 0 516.48 97.27"><g id="Layer_2" data-name="Layer 2"><g id="Layer_1-2" data-name="Layer 1"><path d="M157.88,67.84a1.51,1.51,0,0,1-1.42-1q-.6-1.75-1.26-3.48c-.55-1.48-1.09-3-1.6-4.54H137.39q-.78,2.32-1.58,4.57-.63,1.74-1.23,3.45a1.5,1.5,0,0,1-1.42,1h-4.07a1.5,1.5,0,0,1-1.41-2q1.77-5,3.39-9.34,1.94-5.2,3.78-9.86t3.68-8.86q1.64-3.75,3.36-7.43a1.5,1.5,0,0,1,1.36-.87H148a1.51,1.51,0,0,1,1.37.87q1.72,3.67,3.36,7.43,1.83,4.22,3.68,8.86t3.82,9.86q1.64,4.34,3.42,9.34a1.51,1.51,0,0,1-1.42,2ZM145.49,36.9q-1.28,2.94-2.9,7.14t-3.41,9.13H151.8Q150,48.25,148.37,44T145.49,36.9Z"/><path d="M168.83,39.83a44.3,44.3,0,0,1,5-1,43.78,43.78,0,0,1,6.87-.5,15.9,15.9,0,0,1,5.92,1A9.26,9.26,0,0,1,190.44,42a10.36,10.36,0,0,1,2,4.21,23.35,23.35,0,0,1,.58,5.4V66.34a1.5,1.5,0,0,1-1.5,1.5h-3.7a1.5,1.5,0,0,1-1.5-1.5V52.62a22.34,22.34,0,0,0-.3-4A7.21,7.21,0,0,0,185,46a4,4,0,0,0-1.88-1.49,8.07,8.07,0,0,0-2.91-.47,22.63,22.63,0,0,0-2.66.17c-.92.11-1.6.2-2,.27V66.34a1.5,1.5,0,0,1-1.5,1.5h-3.69a1.5,1.5,0,0,1-1.5-1.5Z"/><path d="M201.21,39.83a45.37,45.37,0,0,1,11.9-1.55,15.92,15.92,0,0,1,5.93,1A9.33,9.33,0,0,1,222.83,42a10.48,10.48,0,0,1,2,4.21,23.35,23.35,0,0,1,.58,5.4V66.34a1.5,1.5,0,0,1-1.5,1.5h-3.69a1.5,1.5,0,0,1-1.5-1.5V52.62a22.24,22.24,0,0,0-.31-4,6.88,6.88,0,0,0-1-2.66,3.92,3.92,0,0,0-1.88-1.49,8,8,0,0,0-2.9-.47,22.5,22.5,0,0,0-2.66.17c-.92.11-1.61.2-2.05.27V66.34a1.5,1.5,0,0,1-1.5,1.5h-3.7a1.5,1.5,0,0,1-1.5-1.5Z"/><path d="M243.23,38.17a16.47,16.47,0,0,1,5.59.83,9,9,0,0,1,3.63,2.33A8.73,8.73,0,0,1,254.39,45a18.07,18.07,0,0,1,.58,4.68V67.18c-1,.22-2.6.49-4.68.8a47,47,0,0,1-7.06.47,20.7,20.7,0,0,1-4.76-.5,9.89,9.89,0,0,1-3.68-1.6,7.54,7.54,0,0,1-2.38-2.88,9.87,9.87,0,0,1-.86-4.37,8.4,8.4,0,0,1,1-4.21,7.92,7.92,0,0,1,2.63-2.8A11.47,11.47,0,0,1,239,50.54a21.93,21.93,0,0,1,4.57-.47,21,21,0,0,1,4.93.61v-1.1a8.44,8.44,0,0,0-.28-2.22,4.46,4.46,0,0,0-2.79-3.1,8.07,8.07,0,0,0-2.86-.44,25.5,25.5,0,0,0-4.26.33c-.57.1-1.1.2-1.57.32a1.5,1.5,0,0,1-1.84-1.23l-.37-2.44a1.49,1.49,0,0,1,1.11-1.68q1-.25,2.4-.51A29.47,29.47,0,0,1,243.23,38.17Zm.55,25a25.11,25.11,0,0,0,4.71-.33V55.39a13.3,13.3,0,0,0-1.61-.33,14.94,14.94,0,0,0-2.32-.17,15.46,15.46,0,0,0-2.24.17,7.11,7.11,0,0,0-2,.6,3.81,3.81,0,0,0-1.47,1.25,3.48,3.48,0,0,0-.55,2,3.56,3.56,0,0,0,1.49,3.3A7.82,7.82,0,0,0,243.78,63.14Z"/><path d="M263.16,39.83a44.06,44.06,0,0,1,5-1,43.56,43.56,0,0,1,6.86-.5,15.87,15.87,0,0,1,5.92,1,9.3,9.3,0,0,1,3.8,2.71,10.48,10.48,0,0,1,2,4.21,23.35,23.35,0,0,1,.58,5.4V66.34a1.5,1.5,0,0,1-1.5,1.5h-3.7a1.5,1.5,0,0,1-1.5-1.5V52.62a22.34,22.34,0,0,0-.3-4,7.21,7.21,0,0,0-1-2.66,4,4,0,0,0-1.88-1.49,8,8,0,0,0-2.91-.47,22.33,22.33,0,0,0-2.65.17c-.93.11-1.61.2-2.05.27V66.34a1.5,1.5,0,0,1-1.5,1.5h-3.7a1.5,1.5,0,0,1-1.5-1.5Z"/><path d="M296.47,31l3.69-.61a1.51,1.51,0,0,1,1.75,1.48v7h8.8a1.5,1.5,0,0,1,1.5,1.5V43a1.5,1.5,0,0,1-1.5,1.5h-8.8V56.27q0,3.49,1.11,5a4.39,4.39,0,0,0,3.76,1.49,12.19,12.19,0,0,0,3.24-.39l.68-.19a1.51,1.51,0,0,1,1.91,1.13l.5,2.4a1.5,1.5,0,0,1-1,1.73c-.53.18-1.13.37-1.79.55a16.65,16.65,0,0,1-4.43.53,14.09,14.09,0,0,1-5.18-.83,7.7,7.7,0,0,1-3.29-2.41,9.37,9.37,0,0,1-1.72-3.82,23.82,23.82,0,0,1-.5-5.12V32.53A1.5,1.5,0,0,1,296.47,31Z"/><path d="M328.32,38.17a16.51,16.51,0,0,1,5.59.83,9,9,0,0,1,3.63,2.33A8.6,8.6,0,0,1,339.47,45a17.64,17.64,0,0,1,.58,4.68V67.18c-1,.22-2.59.49-4.67.8a47,47,0,0,1-7.06.47,20.7,20.7,0,0,1-4.76-.5,9.89,9.89,0,0,1-3.68-1.6,7.65,7.65,0,0,1-2.39-2.88,10,10,0,0,1-.85-4.37,8.4,8.4,0,0,1,1-4.21,8,8,0,0,1,2.62-2.8,11.53,11.53,0,0,1,3.85-1.55,21.93,21.93,0,0,1,4.57-.47,21,21,0,0,1,2.32.14,21.61,21.61,0,0,1,2.61.47v-1.1a8.88,8.88,0,0,0-.28-2.22,4.63,4.63,0,0,0-1-1.85,4.52,4.52,0,0,0-1.83-1.25,8,8,0,0,0-2.85-.44,25.42,25.42,0,0,0-4.26.33c-.57.1-1.1.2-1.58.32A1.5,1.5,0,0,1,320,43.24l-.38-2.44a1.5,1.5,0,0,1,1.11-1.68q1-.25,2.4-.51A29.67,29.67,0,0,1,328.32,38.17Zm.55,25a25.11,25.11,0,0,0,4.71-.33V55.39a13.3,13.3,0,0,0-1.61-.33,15,15,0,0,0-2.32-.17,15.71,15.71,0,0,0-2.25.17,7.14,7.14,0,0,0-2,.6,3.81,3.81,0,0,0-1.47,1.25,3.48,3.48,0,0,0-.55,2,3.54,3.54,0,0,0,1.49,3.3A7.8,7.8,0,0,0,328.87,63.14Z"/><path d="M357.88,62.64q3.76,0,5.48-1.27a4.24,4.24,0,0,0,1.72-3.6,4.71,4.71,0,0,0-.58-2.38,6,6,0,0,0-1.66-1.8,14.25,14.25,0,0,0-2.63-1.5c-1-.46-2.22-.91-3.55-1.35s-2.61-1-3.85-1.58A12.93,12.93,0,0,1,349.55,47a9.32,9.32,0,0,1-3.13-7.31,10,10,0,0,1,3.6-8.16q3.6-3,9.8-3a23,23,0,0,1,9.49,1.9,1.51,1.51,0,0,1,.82,1.92L369,35.26a1.5,1.5,0,0,1-2,.83,17.72,17.72,0,0,0-2.72-.91,19.16,19.16,0,0,0-4.62-.55,7.31,7.31,0,0,0-4.4,1.16,3.82,3.82,0,0,0-1.58,3.27,4.29,4.29,0,0,0,.52,2.18,5.38,5.38,0,0,0,1.5,1.64A13.06,13.06,0,0,0,358,44.21c.87.4,1.82.79,2.85,1.16,1.81.66,3.42,1.34,4.84,2a13.69,13.69,0,0,1,3.6,2.43,9.46,9.46,0,0,1,2.24,3.33,12.19,12.19,0,0,1,.78,4.62,9.6,9.6,0,0,1-3.68,8c-2.46,1.91-6,2.85-10.77,2.85a29,29,0,0,1-4.35-.3,26.19,26.19,0,0,1-3.48-.75,22.6,22.6,0,0,1-2.63-.91l-.55-.24a1.5,1.5,0,0,1-.78-1.87l1-2.88a1.49,1.49,0,0,1,2-.88c.75.33,1.62.65,2.6,1A20.11,20.11,0,0,0,357.88,62.64Z"/><path d="M404.33,53.34a18.85,18.85,0,0,1-1,6.26,13.9,13.9,0,0,1-2.82,4.81,12.77,12.77,0,0,1-4.4,3.1,14.21,14.21,0,0,1-5.68,1.11,14,14,0,0,1-5.65-1.11,12.85,12.85,0,0,1-4.37-3.1,14.12,14.12,0,0,1-2.85-4.81,18.35,18.35,0,0,1-1-6.26,18.09,18.09,0,0,1,1-6.23,14,14,0,0,1,2.88-4.79,12.62,12.62,0,0,1,4.4-3.07,14.18,14.18,0,0,1,5.59-1.08,14.4,14.4,0,0,1,5.62,1.08,12.35,12.35,0,0,1,4.4,3.07,14.22,14.22,0,0,1,2.85,4.79A18.09,18.09,0,0,1,404.33,53.34Zm-6.87,0a11.35,11.35,0,0,0-1.85-6.84,6.57,6.57,0,0,0-10.35,0,11.28,11.28,0,0,0-1.86,6.84,11.5,11.5,0,0,0,1.86,6.92,6.53,6.53,0,0,0,10.35,0A11.57,11.57,0,0,0,397.46,53.34Z"/><path d="M435,67q-2,.5-5,1a40.93,40.93,0,0,1-6.81.53,14.89,14.89,0,0,1-5.84-1,9.26,9.26,0,0,1-3.77-2.77,10.94,10.94,0,0,1-2-4.23,22.76,22.76,0,0,1-.61-5.4V40.39a1.51,1.51,0,0,1,1.51-1.5h3.69a1.5,1.5,0,0,1,1.5,1.5V54.06q0,4.65,1.36,6.64t4.73,2c.81,0,1.67,0,2.58-.11a14.77,14.77,0,0,0,2-.28V40.39a1.5,1.5,0,0,1,1.5-1.5h3.7a1.5,1.5,0,0,1,1.5,1.5Z"/><path d="M460.34,43.36a1.51,1.51,0,0,1-1.82,1.16l-.8-.18a17.12,17.12,0,0,0-3.4-.3,13.29,13.29,0,0,0-2.36.22,14.43,14.43,0,0,0-1.74.39V67.84h-6.7V40.28a36.24,36.24,0,0,1,4.84-1.36,29.87,29.87,0,0,1,6.45-.64c.45,0,1,0,1.55.08s1.19.13,1.78.23,1.16.2,1.71.33,1,.25,1.33.36Z"/><path d="M464.23,53.4a17.87,17.87,0,0,1,1-6,14.56,14.56,0,0,1,2.85-4.85,13.19,13.19,0,0,1,4.52-3.21,14.82,14.82,0,0,1,6-1.16,20.38,20.38,0,0,1,6.41,1A1.52,1.52,0,0,1,486,41l-.68,2.58a1.5,1.5,0,0,1-1.9,1l-1.14-.29a14.3,14.3,0,0,0-3.13-.34,7.34,7.34,0,0,0-6,2.47q-2.06,2.46-2.05,6.95A11,11,0,0,0,473,60.23q1.94,2.52,6.53,2.52a17.37,17.37,0,0,0,3.38-.33c.46-.09.9-.2,1.31-.31a1.5,1.5,0,0,1,1.86,1.2l.44,2.61a1.49,1.49,0,0,1-1,1.68c-.6.18-1.31.36-2.13.52a23.5,23.5,0,0,1-4.62.44,16.68,16.68,0,0,1-6.45-1.13,12.23,12.23,0,0,1-4.54-3.16,13,13,0,0,1-2.69-4.81A20,20,0,0,1,464.23,53.4Z"/><path d="M490.35,53.51a18.12,18.12,0,0,1,1.14-6.7,14,14,0,0,1,3-4.79,12.56,12.56,0,0,1,4.31-2.88,13.34,13.34,0,0,1,5-1q6,0,9.33,3.71T516.48,53c0,.37,0,.79,0,1.25s-.05.87-.09,1.24h-19.1a7.64,7.64,0,0,0,2.47,5.4q2.19,1.9,6.34,1.91a21.11,21.11,0,0,0,4.45-.44c.58-.13,1.1-.26,1.57-.39a1.5,1.5,0,0,1,1.9,1.2l.41,2.54a1.51,1.51,0,0,1-1,1.67l-.32.1a21,21,0,0,1-2.21.55c-.83.17-1.73.31-2.69.42a25.77,25.77,0,0,1-2.93.16,17.74,17.74,0,0,1-6.65-1.13A12.42,12.42,0,0,1,494,64.27a12.94,12.94,0,0,1-2.71-4.76A19.41,19.41,0,0,1,490.35,53.51Zm19.44-3a8.72,8.72,0,0,0-.39-2.63,6.37,6.37,0,0,0-1.14-2.16,5.24,5.24,0,0,0-1.82-1.44,5.85,5.85,0,0,0-2.58-.53,6.11,6.11,0,0,0-2.71.58,6.33,6.33,0,0,0-2,1.53A6.78,6.78,0,0,0,497.94,48a11.33,11.33,0,0,0-.61,2.49Z"/><path d="M64,97.27a16.67,16.67,0,0,1-11.8-4.88L50.8,90.94a1.49,1.49,0,0,1,0-2.12l2.89-2.89a1.49,1.49,0,0,1,2.12,0l1.44,1.45a9.62,9.62,0,0,0,13.58,0l32-32a9.62,9.62,0,0,0,0-13.58l-32-31.95a9.62,9.62,0,0,0-13.58,0l-1.44,1.45a1.51,1.51,0,0,1-2.12,0L50.8,8.44a1.48,1.48,0,0,1,0-2.11l1.44-1.45a16.7,16.7,0,0,1,23.6,0l32,32a16.72,16.72,0,0,1,0,23.6l-32,32A16.63,16.63,0,0,1,64,97.27Z"/><path d="M39.18,86.41a13.57,13.57,0,0,1-11-3.92L4,58.25A13.6,13.6,0,0,1,4,39L28.22,14.78a13.57,13.57,0,0,1,11-3.92A14.07,14.07,0,0,1,47.69,15L49,16.28a1.51,1.51,0,0,1,0,2.12l-3,3a1.51,1.51,0,0,1-2.12,0L42.5,20.07a6.69,6.69,0,0,0-4.08-2,6.32,6.32,0,0,0-5.07,1.83L9.11,44.14a6.35,6.35,0,0,0,0,9L33.18,77.2a6.69,6.69,0,0,0,4.08,2,6.31,6.31,0,0,0,5.07-1.84l1.5-1.5a1.51,1.51,0,0,1,2.12,0l3,3A1.51,1.51,0,0,1,49,81l-1.27,1.26A14,14,0,0,1,39.18,86.41Z"/><path d="M53.64,74l-2.79-2.8a1.48,1.48,0,0,1,0-2.11l15.95-16a6.34,6.34,0,0,0,1.92-3.91A6.07,6.07,0,0,0,67,44.36L50.78,28.18a1.51,1.51,0,0,1,0-2.12l2.8-2.79a1.49,1.49,0,0,1,2.12,0L71.88,39.45A12.93,12.93,0,0,1,75.69,49a13.55,13.55,0,0,1-4.09,9.14L55.76,74A1.51,1.51,0,0,1,53.64,74Z"/></g></g></svg>