<svg xmlns="http://www.w3.org/2000/svg" viewBox="0 0 112.68 97.27"><defs><style>.cls-1{fill:#fff;}</style></defs><g id="Layer_2" data-name="Layer 2"><g id="Layer_1-2" data-name="Layer 1"><path class="cls-1" d="M64,97.27a16.67,16.67,0,0,1-11.8-4.88L50.8,90.94a1.49,1.49,0,0,1,0-2.12l2.89-2.89a1.49,1.49,0,0,1,2.12,0l1.44,1.45a9.62,9.62,0,0,0,13.58,0l32-32a9.62,9.62,0,0,0,0-13.58l-32-31.95a9.62,9.62,0,0,0-13.58,0l-1.44,1.45a1.51,1.51,0,0,1-2.12,0L50.8,8.44a1.48,1.48,0,0,1,0-2.11l1.44-1.45a16.7,16.7,0,0,1,23.6,0l32,32a16.72,16.72,0,0,1,0,23.6l-32,32A16.63,16.63,0,0,1,64,97.27Z"/><path class="cls-1" d="M39.18,86.41a13.57,13.57,0,0,1-11-3.92L4,58.25A13.6,13.6,0,0,1,4,39L28.22,14.78a13.57,13.57,0,0,1,11-3.92A14.07,14.07,0,0,1,47.69,15L49,16.28a1.51,1.51,0,0,1,0,2.12l-3,3a1.51,1.51,0,0,1-2.12,0L42.5,20.07a6.69,6.69,0,0,0-4.08-2,6.32,6.32,0,0,0-5.07,1.83L9.11,44.14a6.35,6.35,0,0,0,0,9L33.18,77.2a6.69,6.69,0,0,0,4.08,2,6.31,6.31,0,0,0,5.07-1.84l1.5-1.5a1.51,1.51,0,0,1,2.12,0l3,3A1.51,1.51,0,0,1,49,81l-1.27,1.26A14,14,0,0,1,39.18,86.41Z"/><path class="cls-1" d="M53.64,74l-2.79-2.8a1.48,1.48,0,0,1,0-2.11l15.95-16a6.34,6.34,0,0,0,1.92-3.91A6.07,6.07,0,0,0,67,44.36L50.78,28.18a1.51,1.51,0,0,1,0-2.12l2.8-2.79a1.49,1.49,0,0,1,2.12,0L71.88,39.45A12.93,12.93,0,0,1,75.69,49a13.55,13.55,0,0,1-4.09,9.14L55.76,74A1.51,1.51,0,0,1,53.64,74Z"/></g></g></svg>